<?xml version="1.0" standalone="no"?><!DOCTYPE svg PUBLIC "-//W3C//DTD SVG 1.1//EN" "http://www.w3.org/Graphics/SVG/1.1/DTD/svg11.dtd"><svg t="1588160822848" class="icon" viewBox="0 0 1024 1024" version="1.1" xmlns="http://www.w3.org/2000/svg" p-id="2906" xmlns:xlink="http://www.w3.org/1999/xlink" width="200" height="200"><defs><style type="text/css"></style></defs><path d="M771.618133 514.2528c0 15.086933-12.219733 27.306667-27.306666 27.306667H345.9072L469.674667 665.668267a27.29984 27.29984 0 0 1-0.068267 38.638933c-5.3248 5.3248-12.288 7.9872-19.2512 7.9872a26.965333 26.965333 0 0 1-19.319467-8.055467l-170.1888-170.666666a27.27936 27.27936 0 0 1 0-38.570667l170.1888-170.666667a27.36128 27.36128 0 0 1 38.638934-0.068266 27.36128 27.36128 0 0 1 0.068266 38.638933L345.9072 486.946133h398.404267c15.086933 0 27.306667 12.288 27.306666 27.306667z" p-id="2907"></path></svg>