<?xml version="1.0" standalone="no"?><!DOCTYPE svg PUBLIC "-//W3C//DTD SVG 1.1//EN" "http://www.w3.org/Graphics/SVG/1.1/DTD/svg11.dtd"><svg t="1588830058433" class="icon" viewBox="0 0 1316 1024" version="1.1" xmlns="http://www.w3.org/2000/svg" p-id="2013" xmlns:xlink="http://www.w3.org/1999/xlink" width="257.03125" height="200"><defs><style type="text/css"></style></defs><path d="M940.544 926.354286H138.898286a6.582857 6.582857 0 0 1-6.802286-6.729143V385.828571H1180.525714V691.2c0 18.285714 15.36 33.645714 33.645715 33.645714 18.358857 0 33.792-15.36 33.792-33.645714V227.766857c0-40.448-32.768-74.166857-74.166858-74.166857H677.449143L550.253714 51.492571a33.645714 33.645714 0 0 0-21.211428-7.753142H138.898286c-40.448 0-74.166857 32.768-74.166857 74.166857v801.645714c0 40.521143 32.768 74.24 74.166857 74.24h801.645714c18.285714 0 33.792-15.36 33.792-33.718857 0-18.285714-15.433143-33.718857-33.718857-33.718857zM133.046857 118.857143a6.582857 6.582857 0 0 1 6.802286-6.729143h377.636571l127.268572 102.180571a33.645714 33.645714 0 0 0 21.211428 7.68h508.708572a6.582857 6.582857 0 0 1 6.729143 6.729143v90.624H133.046857v-200.411428z m894.171429 841.216a36.571429 36.571429 0 1 0 73.216 0 36.571429 36.571429 0 0 0-73.142857 0z m145.554285 0a36.571429 36.571429 0 1 0 73.142858 0 36.571429 36.571429 0 0 0-73.142858 0z m2.852572-125.293714a36.571429 36.571429 0 1 0 73.216 0 36.571429 36.571429 0 0 0-73.216 0z" p-id="2014"></path></svg>