<?xml version="1.0" standalone="no"?><!DOCTYPE svg PUBLIC "-//W3C//DTD SVG 1.1//EN" "http://www.w3.org/Graphics/SVG/1.1/DTD/svg11.dtd"><svg t="1588830028227" class="icon" viewBox="0 0 1024 1024" version="1.1" xmlns="http://www.w3.org/2000/svg" p-id="1893" xmlns:xlink="http://www.w3.org/1999/xlink" width="200" height="200"><defs><style type="text/css"></style></defs><path d="M471.771429 409.6h-256v51.2h256v-51.2z m0-153.6h-256v51.2h256v-51.2z m-256 512h563.2v-51.2h-563.2v51.2z m734.866285-427.666286L634.660571 0H138.971429A102.4 102.4 0 0 0 36.571429 102.4v819.2A102.4 102.4 0 0 0 138.971429 1024h716.8a102.4 102.4 0 0 0 102.4-102.4V358.4l-9.069715-9.069714 1.536-8.996572zM650.971429 93.622857l224.109714 239.104H702.171429a51.2 51.2 0 0 1-51.2-51.2V93.696zM906.971429 921.6a51.2 51.2 0 0 1-51.2 51.2H138.971429a51.2 51.2 0 0 1-51.2-51.2V102.4a51.2 51.2 0 0 1 51.2-51.2h460.8v230.4a102.4 102.4 0 0 0 102.4 102.4h204.8v537.6zM215.771429 614.4h563.2v-51.2h-563.2v51.2z" p-id="1894"></path></svg>